<svg width="117" height="20" viewBox="0 0 117 20" fill="none" xmlns="http://www.w3.org/2000/svg">
<g id="Logo (Full) Black" clip-path="url(#clip0_453_3394)">
<g id="Group">
<g id="Group_2">
<path id="Vector" d="M4.39046 11.9357C3.49339 11.8797 2.59632 11.8717 1.69926 11.9357C1.11152 11.9757 0.748059 12.5117 0.802192 13.0557C0.879525 14.1757 2.20966 14.0157 3.02166 13.9997C3.84139 14.0077 5.19472 14.1757 5.27979 13.0237C5.31072 12.5437 4.91632 11.9677 4.39046 11.9357Z" fill="black"/>
<path id="Vector_2" d="M3.59364 4.25622C3.59364 4.24822 3.59364 4.24822 3.59364 4.25622C5.15577 4.66422 5.94457 2.49622 4.27417 2.14422C1.45924 1.55222 1.18084 4.45622 3.59364 4.25622Z" fill="black"/>
<path id="Vector_3" d="M5.23909 7.94432C3.54549 7.89632 3.46042 10.1283 5.18495 10.1603C6.97909 10.3123 7.06415 7.88832 5.23909 7.94432Z" fill="black"/>
<path id="Vector_4" d="M37.2883 2.09594L26.3843 0.207942C24.0101 0.207942 11.0568 0.207942 8.64401 0.207942C7.3912 0.159942 7.23654 2.02394 8.45067 2.25594C9.87361 2.43994 11.3275 2.29594 12.7659 2.34394C14.2584 2.56794 13.6707 4.34394 12.0931 4.11194C10.8403 4.34394 6.10747 3.38394 5.96827 4.86394C5.80587 5.63194 6.22347 6.15994 7.02 6.16794C9.59521 6.17594 12.1704 6.16794 14.7456 6.17594C15.4571 6.17594 15.8824 6.55194 15.8901 7.09594C15.8979 7.66394 15.5189 7.94394 14.7456 7.95194C12.4256 8.00794 10.0901 7.81594 7.7856 8.05594C6.16934 8.51994 7.08187 10.4319 8.52027 10.1759C11.4899 10.1599 14.4595 10.1359 17.4291 10.1039C18.2643 10.0959 18.7979 10.4479 18.7979 11.0239C18.7979 11.6079 18.3803 11.8719 17.4677 11.8719C13.8872 11.9359 10.2912 11.7359 6.7184 11.9679C5.512 12.1919 5.744 14.1759 7.1128 14.0079C10.0283 14.0159 12.9515 14.0079 15.8669 14.0159C17.5915 13.7839 17.7925 16.0079 15.9752 15.7919C14.2971 15.7919 12.6267 15.7919 10.9485 15.7999C10.1984 15.7759 9.27041 15.9999 9.39414 16.9999C9.44827 18.2399 10.8712 17.8879 11.6987 17.9279C14.5523 17.9279 17.9704 17.9279 21.0792 17.9279L31.9677 19.8079L40.1264 12.0879L37.2883 2.09594ZM33.3288 4.19194L28.7661 8.51194L26.8947 8.19194L31.4573 3.87194L33.3288 4.19194ZM27.2272 3.13594L29.4544 3.51994L24.8917 7.83994L22.6645 7.45594L27.2272 3.13594ZM23.1672 15.4479L21.6283 10.0719L24.188 10.5119L24.652 12.1199C24.9304 13.1519 26.4925 12.6719 26.1832 11.6479L25.9435 10.8079L28.1475 11.1919L29.6864 16.5679L23.1672 15.4479ZM32.2384 15.7919L30.6995 10.4159L35.5715 5.79994L37.1104 11.1759L32.2384 15.7919Z" fill="black"/>
</g>
<g id="Group_3">
<path id="Vector_5" d="M42.2227 18.089L44.6664 2.20898H47.7597L46.7776 8.68898H48.8037L53.0416 2.20898H56.2123L51.0773 10.193L54.1243 18.089H51.0309L48.5253 11.545H46.3136L45.3083 18.089H42.2227Z" fill="black"/>
<path id="Vector_6" d="M55.9582 18.0884L54.1641 6.56839H57.3347L58.2937 15.1124L61.6577 6.56839H63.6838L65.1454 15.1124L67.2102 9.33639C67.2798 9.13639 67.3649 8.86439 67.4577 8.52839C67.5582 8.19239 67.651 7.83239 67.7361 7.44839C67.8289 7.06439 67.883 6.71239 67.9139 6.40039H70.9222C70.9222 6.85639 70.8681 7.33639 70.7521 7.84039C70.6438 8.34439 70.5046 8.82439 70.3422 9.29639C70.1798 9.76839 70.0251 10.1764 69.8705 10.5204L66.4059 18.0964H63.1425L61.9515 11.7444L59.2371 18.0964H55.9582V18.0884Z" fill="black"/>
<path id="Vector_7" d="M70.2578 18.0889L72.0133 6.56892H75.1221L73.3511 18.0889H70.2578ZM72.6629 4.87292C72.5391 4.87292 72.4386 4.83292 72.369 4.75292C72.2994 4.67292 72.2762 4.56892 72.3071 4.44092L72.6165 2.33692C72.6706 2.03292 72.8407 1.88892 73.1191 1.88892H75.501C75.6402 1.88892 75.733 1.92892 75.7794 2.01692C75.8258 2.10492 75.849 2.20892 75.8335 2.33692L75.5242 4.44092C75.4701 4.72892 75.3077 4.87292 75.0447 4.87292H72.6629Z" fill="black"/>
<path id="Vector_8" d="M74.5156 18.0889L77.0444 1.71289H80.1378L78.7535 10.6409C79.4108 10.5129 79.9908 10.2889 80.509 9.97689C81.0271 9.66489 81.4679 9.22489 81.8468 8.65689C82.2258 8.08889 82.5119 7.39289 82.7207 6.56089H85.8295C85.5511 7.61689 85.2108 8.49689 84.8164 9.19289C84.422 9.88889 83.9967 10.4409 83.5559 10.8649C83.1074 11.2889 82.6743 11.6169 82.2412 11.8649L85.1876 18.0889H82.017L79.6583 12.8329C79.465 12.8889 79.2407 12.9369 79.001 12.9689C78.7535 13.0009 78.5524 13.0249 78.3823 13.0249L77.609 18.0889H74.5156Z" fill="black"/>
<path id="Vector_9" d="M100.633 18.0889L102.388 6.56892H105.497L103.726 18.0889H100.633ZM103.038 4.87292C102.914 4.87292 102.814 4.83292 102.744 4.75292C102.674 4.67292 102.651 4.56892 102.682 4.44092L102.991 2.33692C103.046 2.03292 103.216 1.88892 103.494 1.88892H105.876C106.015 1.88892 106.108 1.92892 106.154 2.01692C106.201 2.10492 106.224 2.20892 106.209 2.33692L105.899 4.44092C105.845 4.72892 105.683 4.87292 105.42 4.87292H103.038Z" fill="black"/>
<path id="Vector_10" d="M104.895 18.0889L107.423 1.71289H110.517L109.132 10.6409C109.79 10.5129 110.37 10.2889 110.888 9.97689C111.406 9.66489 111.847 9.22489 112.226 8.65689C112.605 8.08889 112.891 7.39289 113.1 6.56089H116.208C115.93 7.61689 115.59 8.49689 115.195 9.19289C114.801 9.88889 114.376 10.4409 113.935 10.8649C113.486 11.2889 113.053 11.6169 112.62 11.8649L115.567 18.0889H112.396L110.037 12.8329C109.844 12.8889 109.62 12.9369 109.38 12.9689C109.132 13.0009 108.931 13.0249 108.761 13.0249L107.988 18.0889H104.895Z" fill="black"/>
</g>
<path id="Vector_11" d="M96.6088 1.4082C94.049 1.4082 91.9688 3.4802 91.9688 6.0322C91.9688 8.5842 93.3685 18.1442 93.3685 18.1442L95.9514 11.8242C95.9514 11.8242 101.241 10.8802 101.241 6.0322C101.249 3.4802 99.1685 1.4082 96.6088 1.4082ZM96.4541 8.2482C95.3096 8.2482 94.3738 7.3202 94.3738 6.1762C94.3738 5.0322 95.3018 4.1042 96.4541 4.1042C97.5986 4.1042 98.5343 5.0322 98.5343 6.1762C98.5343 7.3202 97.5986 8.2482 96.4541 8.2482Z" fill="black"/>
</g>
</g>
<defs>
<clipPath id="clip0_453_3394">
<rect width="116" height="20" fill="white" transform="translate(0.5)"/>
</clipPath>
</defs>
</svg>
